<svg xmlns="http://www.w3.org/2000/svg" xmlns:xlink="http://www.w3.org/1999/xlink" width="40" zoomAndPan="magnify" viewBox="0 0 30 30.000001" height="40" preserveAspectRatio="xMidYMid meet" version="1.0"><defs><clipPath id="c3467e71d9"><path d="M 1.855469 0 L 27.984375 0 L 27.984375 29.03125 L 1.855469 29.03125 Z M 1.855469 0 " clip-rule="nonzero"/></clipPath></defs><g clip-path="url(#c3467e71d9)"><path fill="#5e17eb" d="M 9.550781 9.164062 L 4.792969 9.164062 L 4.792969 21.945312 L 8.511719 18.222656 L 8.941406 17.792969 L 17.777344 17.792969 C 18.371094 17.792969 18.945312 17.722656 19.5 17.589844 C 20.164062 17.378906 20.757812 17.011719 21.238281 16.527344 C 22.019531 15.75 22.503906 14.667969 22.503906 13.480469 C 22.503906 12.285156 22.019531 11.207031 21.238281 10.429688 C 20.757812 9.945312 20.164062 9.582031 19.5 9.367188 C 18.949219 9.234375 18.371094 9.164062 17.777344 9.164062 Z M 6.867188 6.226562 L 17.777344 6.226562 C 17.917969 6.226562 18.050781 6.230469 18.1875 6.234375 L 18.1875 6.226562 C 18.917969 6.226562 19.628906 6.335938 20.292969 6.539062 C 22.136719 7.003906 23.792969 7.964844 25.097656 9.269531 L 25.128906 9.300781 C 24.894531 7.683594 24.132812 6.230469 23.023438 5.121094 C 21.675781 3.773438 19.820312 2.9375 17.777344 2.9375 L 10.15625 2.9375 Z M 1.855469 7.695312 L 1.855469 7.089844 L 6.53125 2.410156 L 8.941406 0 L 17.777344 0 C 20.628906 0 23.222656 1.164062 25.097656 3.042969 C 26.976562 4.921875 28.144531 7.515625 28.144531 10.367188 C 28.144531 11.449219 27.972656 12.496094 27.664062 13.480469 C 27.972656 14.460938 28.144531 15.507812 28.144531 16.59375 C 28.144531 19.445312 26.976562 22.035156 25.097656 23.914062 C 23.222656 25.789062 20.628906 26.957031 17.777344 26.957031 L 8.585938 26.957031 L 11.519531 24.019531 L 17.777344 24.019531 C 19.820312 24.019531 21.675781 23.183594 23.023438 21.835938 C 24.132812 20.726562 24.894531 19.273438 25.128906 17.65625 L 25.097656 17.683594 C 23.792969 18.992188 22.136719 19.957031 20.289062 20.417969 C 19.625 20.621094 18.917969 20.726562 18.1875 20.726562 L 18.1875 20.722656 C 18.050781 20.726562 17.917969 20.726562 17.777344 20.726562 L 10.15625 20.726562 L 9.894531 20.992188 L 4.363281 26.527344 L 1.855469 29.03125 Z M 1.855469 7.695312 " fill-opacity="1" fill-rule="nonzero"/></g></svg>